<?xml version="1.0" encoding="UTF-8"?>
<svg width="164px" height="36px" viewBox="0 0 164 36" version="1.1" xmlns="http://www.w3.org/2000/svg" xmlns:xlink="http://www.w3.org/1999/xlink">
    <title>logo</title>
    <defs>
        <polygon id="path-1" points="0.192867097 0.0318967742 10.1586581 0.0318967742 10.1586581 11.6902194 0.192867097 11.6902194"></polygon>
    </defs>
    <g id="Design" stroke="none" stroke-width="1" fill="none" fill-rule="evenodd">
        <g id="1.0_home_desktop---Version-1.2" transform="translate(-103.000000, -49.000000)">
            <g id="Top" transform="translate(103.000000, 46.000000)">
                <g id="logo_new" transform="translate(0.000000, 3.000000)">
                    <g id="Group" transform="translate(2.081899, 2.081832)" stroke-linecap="round" stroke-linejoin="round" stroke-width="2.64113548">
                        <polyline id="Stroke-1" stroke="#12CBF0" points="7.10542736e-15 17.9937497 8.26632258 17.9937497 10.754271 9.85625288 15.874271 22.0061367 20.0509935 11.5378013 21.9932903 15.96784 38.9332645 15.96784"></polyline>
                        <path d="M10.7543329,4.82700901 L10.7543329,2.2085832 C10.7543329,0.510931587 12.5921652,-0.550023251 14.0625135,0.298699329 L25.9464877,7.16011868 L37.8306684,14.0213316 C39.3008103,14.8700542 39.3008103,16.9923767 37.8306684,17.8410993 L25.9464877,24.7023122 L14.0625135,31.5637316 C12.5921652,32.4126606 10.7543329,31.3514993 10.7543329,29.6538477 L10.7543329,27.0395509" id="Stroke-3" stroke="#1A5AE2"></path>
                    </g>
                    <path d="M74.6939045,16.1001703 L79.4433239,16.1001703 C79.4208206,14.9182348 78.8072465,13.9183897 77.23904,13.9183897 C75.7845884,13.9183897 74.9439174,14.8957316 74.6939045,16.1001703 M80.6706787,18.1684026 L74.5576465,18.1684026 C74.6714013,19.8272413 75.8300077,20.8725058 77.4890529,20.8725058 C78.2847174,20.8725058 79.01184,20.5995768 79.6708335,20.0772542 C80.3525368,19.5316026 80.9431948,19.5088929 81.4434271,20.0089187 C81.9205368,20.4635252 81.8978271,21.2587768 81.2844594,21.8269316 C80.2616981,22.7586477 79.01184,23.2132542 77.4890529,23.2132542 C75.8300077,23.2132542 74.4668077,22.6903123 73.4440465,21.6225445 C72.4212852,20.5543639 71.8987561,19.1682477 71.8987561,17.4637832 C71.8987561,15.8047381 72.3987819,14.3959123 73.375711,13.2593961 C74.3532594,12.1230865 75.6712465,11.5549316 77.2844594,11.5549316 C78.9889239,11.5549316 80.3525368,12.2822606 81.0798658,13.3050219 C81.8069884,14.3275768 82.1476335,15.4638865 82.1476335,16.5547768 C82.1476335,17.4862865 81.5798916,18.1684026 80.6706787,18.1684026" id="Fill-5" fill="#1D1D1D"></path>
                    <path d="M86.4644542,17.395551 C86.4644542,19.3952413 87.555551,20.9405316 89.4414865,20.9405316 C91.3505445,20.9405316 92.4187252,19.3952413 92.4187252,17.395551 C92.4187252,15.3956542 91.3505445,13.8505703 89.4414865,13.8505703 C87.555551,13.8505703 86.4644542,15.3956542 86.4644542,17.395551 M89.2600155,23.213151 C87.6688929,23.213151 86.3736155,22.6679123 85.3508542,21.5770219 C84.3285058,20.4634219 83.82848,19.0770994 83.82848,17.395551 C83.82848,15.7140026 84.3285058,14.3274735 85.3508542,13.2138735 C86.3736155,12.1006865 87.6688929,11.5548284 89.2600155,11.5548284 C90.4869574,11.5548284 91.5322219,11.9185961 92.3728929,12.6461316 L92.3728929,8.32819613 C92.3728929,6.46476387 94.9638606,6.46476387 94.9638606,8.32819613 L94.9638606,21.71328 C94.9638606,22.5995768 94.4184155,23.0993961 93.6910865,23.0993961 C93.0320929,23.0993961 92.5095639,22.690209 92.4187252,21.9632929 C91.6230606,22.8039639 90.5550865,23.213151 89.2600155,23.213151" id="Fill-7" fill="#1D1D1D"></path>
                    <path d="M100.370705,21.6679226 C100.484459,23.5313548 97.6663948,23.5313548 97.7801497,21.6679226 L97.7801497,13.1230968 C97.6663948,11.2594581 100.484459,11.2594581 100.370705,13.1230968 L100.370705,21.6679226 Z M97.9393239,7.30549677 C98.5754013,6.6692129 99.6208723,6.6692129 100.257363,7.30549677 C100.89344,7.91907097 100.89344,8.96433548 100.257363,9.60061935 C99.6208723,10.2371097 98.5754013,10.2371097 97.9393239,9.60061935 C97.3028335,8.96433548 97.3028335,7.91907097 97.9393239,7.30549677 L97.9393239,7.30549677 Z" id="Fill-9" fill="#1D1D1D"></path>
                    <path d="M128.63393,19.8952465 C129.201672,19.2362529 129.497517,18.3953755 129.497517,17.3955303 C129.497517,16.3956852 129.201672,15.577311 128.63393,14.9183174 C128.065775,14.2595303 127.361156,13.9184723 126.520485,13.9184723 C124.793105,13.9184723 123.520743,15.39584 123.520743,17.3955303 C123.520743,19.3952206 124.793105,20.8725884 126.520485,20.8725884 C127.361156,20.8725884 128.065775,20.55424 128.63393,19.8952465 L128.63393,19.8952465 Z M132.042653,21.66784 C132.178911,23.5085626 129.315427,23.5314787 129.452098,21.7132594 C128.543092,22.7131045 127.451995,23.2131303 126.179634,23.2131303 C124.725182,23.2131303 123.475324,22.6678916 122.430059,21.5542916 C121.407298,20.4406916 120.884356,19.0545755 120.884356,17.3955303 C120.884356,15.7364852 121.407298,14.350369 122.430059,13.236769 C123.475324,12.123169 124.725182,11.5550142 126.179634,11.5550142 C127.474911,11.5550142 128.565595,12.0552465 129.452098,13.0778013 C129.474601,12.2369239 130.020046,11.7141884 130.747375,11.7141884 C131.497414,11.7141884 132.042653,12.2369239 132.042653,13.1230142 L132.042653,21.66784 Z" id="Fill-11" fill="#1D1D1D"></path>
                    <path d="M139.563355,20.3497703 C141.290529,20.3497703 142.426839,19.0315768 142.426839,17.1454348 C142.426839,15.2365832 141.290529,13.9183897 139.563355,13.9183897 C137.836387,13.9183897 136.722787,15.2365832 136.722787,17.1454348 C136.722787,19.0315768 137.836387,20.3497703 139.563355,20.3497703 M143.699406,11.7141058 C144.426529,11.7141058 144.972181,12.2141316 144.972181,13.1006348 L144.972181,22.0540284 C144.972181,23.7359897 144.471948,25.0766865 143.472103,26.0990348 C142.472052,27.1217961 141.131561,27.6218219 139.472516,27.6218219 C137.722632,27.6218219 136.268387,27.0309574 135.063948,25.8265187 C134.450168,25.2129445 134.450168,24.3947768 134.97311,23.9405832 C135.42751,23.4630606 136.199845,23.4401445 136.813626,24.0539252 C137.608877,24.8945961 138.472671,25.3037832 139.427097,25.3037832 C141.2224,25.3037832 142.381213,24.2130994 142.381213,22.1904929 L142.381213,21.6225445 C141.585961,22.3496671 140.609032,22.7132284 139.404387,22.7132284 C137.836387,22.7132284 136.563613,22.1904929 135.563768,21.1450219 C134.586839,20.0772542 134.086813,18.7590606 134.086813,17.1454348 C134.086813,15.5320155 134.586839,14.1913187 135.586684,13.1458477 C136.586529,12.0778735 137.85889,11.5549316 139.404387,11.5549316 C140.631535,11.5549316 141.631381,11.941409 142.426839,12.7368671 C142.585806,12.0551639 143.017497,11.7141058 143.699406,11.7141058" id="Fill-13" fill="#1D1D1D"></path>
                    <path d="M150.356191,21.6679226 C150.469946,23.5313548 147.651881,23.5313548 147.765636,21.6679226 L147.765636,13.1230968 C147.651881,11.2594581 150.469946,11.2594581 150.356191,13.1230968 L150.356191,21.6679226 Z M147.92481,7.30549677 C148.560888,6.6692129 149.606359,6.6692129 150.242849,7.30549677 C150.878926,7.91907097 150.878926,8.96433548 150.242849,9.60061935 C149.606359,10.2371097 148.560888,10.2371097 147.92481,9.60061935 C147.28832,8.96433548 147.28832,7.91907097 147.92481,7.30549677 L147.92481,7.30549677 Z" id="Fill-15" fill="#1D1D1D"></path>
                    <g id="Group-19" transform="translate(152.503226, 11.522994)">
                        <mask id="mask-2" fill="white">
                            <use xlink:href="#path-1"></use>
                        </mask>
                        <g id="Clip-18"></g>
                        <path d="M9.51044129,1.41842581 C10.123809,1.98637419 10.1013058,2.80454194 9.62378323,3.25914839 C9.14688,3.71354839 8.39684129,3.66812903 7.82868645,3.1908129 C7.19240258,2.66828387 6.53340903,2.39535484 5.85170581,2.39535484 C4.10161548,2.39535484 2.82925419,3.84980645 2.82925419,5.87261935 C2.82925419,7.89522581 4.12453161,9.34967742 5.87420903,9.34967742 C6.69258323,9.34967742 7.39699613,9.05424516 8.01057032,8.48588387 C8.57851871,7.96314839 9.32855742,7.94064516 9.80587355,8.39504516 C10.2829832,8.84965161 10.3058994,9.6676129 9.69211871,10.2357677 C8.62393806,11.2131097 7.30615742,11.6902194 5.78337032,11.6902194 C4.23808,11.6902194 2.9200929,11.1447742 1.82920258,10.0311742 C0.73851871,8.91757419 0.192867097,7.53145806 0.192867097,5.87261935 C0.192867097,4.21357419 0.73851871,2.82745806 1.82920258,1.71385806 C2.9200929,0.600258065 4.23808,0.0318967742 5.78337032,0.0318967742 C7.26032516,0.0318967742 8.48768,0.486503226 9.51044129,1.41842581" id="Fill-17" fill="#1D1D1D" mask="url(#mask-2)"></path>
                    </g>
                    <path d="M119.109533,16.4861729 L119.109533,21.6650116 C119.245997,23.5288568 116.378385,23.5288568 116.518565,21.6650116 L116.518565,16.304289 C116.518565,14.8252697 115.766668,13.8949987 114.46912,13.8949987 C113.171985,13.8949987 112.423597,14.8252697 112.423597,16.304289 L112.423597,21.6650116 C112.559855,23.5288568 109.695959,23.5288568 109.832423,21.6650116 L109.832423,16.4861729 C109.832423,16.4232052 109.832423,16.3637471 109.835933,16.304289 L109.835933,16.2762116 C109.825404,14.8145342 109.077017,13.8949987 107.786694,13.8949987 C106.489352,13.8949987 105.740965,14.8252697 105.740965,16.304289 L105.740965,21.6650116 C105.87743,23.5288568 103.013533,23.5288568 103.149791,21.6650116 L103.149791,16.4861729 C103.149791,13.2795665 104.649868,11.5519794 107.580449,11.5519794 L107.996449,11.5519794 C109.34623,11.5519794 110.395417,11.9192568 111.129765,12.6290374 C111.864114,11.9157471 112.913094,11.5519794 114.262875,11.5519794 L114.679081,11.5519794 C117.609455,11.5519794 119.109533,13.2795665 119.109533,16.4861729" id="Fill-20" fill="#1D1D1D"></path>
                    <path d="M70.1498426,16.4861729 L70.1498426,21.6650116 C70.2863071,23.5288568 67.4186942,23.5288568 67.5588748,21.6650116 L67.5588748,16.304289 C67.5588748,14.8252697 66.8067716,13.8949987 65.5094297,13.8949987 C64.2120877,13.8949987 63.4639071,14.8252697 63.4639071,16.304289 L63.4639071,21.6650116 C63.6001652,23.5288568 60.7362684,23.5288568 60.8727329,21.6650116 L60.8727329,16.4861729 C60.8727329,16.4232052 60.8727329,16.3637471 60.8762426,16.304289 L60.8762426,16.2762116 C60.8657135,14.8145342 60.1173265,13.8949987 58.8270039,13.8949987 C57.5296619,13.8949987 56.7812748,14.8252697 56.7812748,16.304289 L56.7812748,21.6650116 C56.9177394,23.5288568 54.0538426,23.5288568 54.1901006,21.6650116 L54.1901006,16.4861729 C54.1901006,13.2795665 55.6901781,11.5519794 58.6207587,11.5519794 L59.0367587,11.5519794 C60.3865394,11.5519794 61.4357265,11.9192568 62.1700748,12.6290374 C62.9044232,11.9157471 63.9534039,11.5519794 65.3031845,11.5519794 L65.719391,11.5519794 C68.6497652,11.5519794 70.1498426,13.2795665 70.1498426,16.4861729" id="Fill-22" fill="#1D1D1D"></path>
                </g>
            </g>
        </g>
    </g>
</svg>