<?xml version="1.0" encoding="UTF-8"?>
<svg width="155px" height="45px" viewBox="0 0 155 45" version="1.1" xmlns="http://www.w3.org/2000/svg" xmlns:xlink="http://www.w3.org/1999/xlink">
    <title>ios_app_store@3x</title>
    <g id="Design" stroke="none" stroke-width="1" fill="none" fill-rule="evenodd">
        <g id="1.0_home_desktop---Version-1.2" transform="translate(-226.000000, -4273.000000)">
            <g id="Group-6" transform="translate(145.000000, 3949.000000)">
                <g id="Group-10" transform="translate(80.000000, 98.000000)">
                    <g id="ios_app_store" transform="translate(1.000000, 226.000000)">
                        <path d="M150.415452,44.94015 L4.49965185,44.94015 C2.03533333,44.94015 0.035037037,42.9262 0.035037037,40.4399 L0.035037037,4.551875 C0.035037037,2.06675 2.03533333,0.04575 4.49965185,0.04575 L150.414289,0.04575 C152.880933,0.04575 154.873089,2.06675 154.873089,4.551875 L154.874252,40.4399 C154.874252,42.9262 152.880933,44.94015 150.415452,44.94015 Z" id="Shape" fill="#FFFFFF"></path>
                        <path d="M34.0377481,22.2462 C34.0040222,18.459175 37.1068074,16.616775 37.2486889,16.531 C35.4914519,13.942475 32.7677926,13.5888 31.8106741,13.5606 C29.5231259,13.317375 27.3041926,14.943575 26.1389037,14.943575 C24.9503556,14.943575 23.1559037,13.5841 21.2218963,13.62405 C18.7331556,13.662825 16.4049037,15.11865 15.1279704,17.37935 C12.4926963,21.988875 14.4581037,28.76275 16.9828963,32.488675 C18.2458741,34.31345 19.7216741,36.3509 21.6533556,36.279225 C23.5431704,36.2005 24.2490889,35.061925 26.5296593,35.061925 C28.7892963,35.061925 29.4521852,36.279225 31.4222444,36.2334 C33.4504519,36.2005 34.7273852,34.4004 35.9461704,32.559175 C37.4056889,30.467675 37.9918222,28.4079 38.0150815,28.30215 C37.9674,28.2857 34.0761259,26.785225 34.0377481,22.2462 L34.0377481,22.2462 Z" id="Shape" fill="#1D1D1D"></path>
                        <path d="M30.3162667,11.10955 C31.3326963,9.825275 32.0281481,8.07805 31.8350963,6.304975 C30.3639481,6.370775 28.5241407,7.3331 27.4646815,8.589175 C26.5273333,9.696025 25.69,11.510225 25.9063111,13.216325 C27.5588815,13.340875 29.2556444,12.37385 30.3162667,11.10955 L30.3162667,11.10955 Z" id="Shape" fill="#1D1D1D"></path>
                        <path d="M61.3871481,36.0172 L58.7460593,36.0172 L57.2993333,31.424125 L52.2706815,31.424125 L50.8925704,36.0172 L48.3212593,36.0172 L53.3033926,20.3803 L56.3805926,20.3803 L61.3871481,36.0172 L61.3871481,36.0172 Z M56.8632222,29.497125 L55.5548889,25.414 C55.4164963,24.996875 55.1571556,24.014575 54.7745407,22.468275 L54.7280222,22.468275 C54.5756741,23.133325 54.3302889,24.115625 53.9930296,25.414 L52.7079556,29.497125 L56.8632222,29.497125 L56.8632222,29.497125 Z" id="Shape" fill="#1D1D1D"></path>
                        <path d="M74.1995111,30.2409 C74.1995111,32.1585 73.6866444,33.67425 72.6609111,34.786975 C71.7421704,35.7775 70.6013037,36.272175 69.2394741,36.272175 C67.7694889,36.272175 66.7135185,35.738725 66.0704,34.671825 L66.0238815,34.671825 L66.0238815,40.61145 L63.5444444,40.61145 L63.5444444,28.453725 C63.5444444,27.248175 63.5130444,26.0109 63.4525704,24.7419 L65.6331259,24.7419 L65.7715185,26.529075 L65.818037,26.529075 C66.6449037,25.182525 67.8997407,24.510425 69.5837111,24.510425 C70.9001852,24.510425 71.9991852,25.03565 72.8783852,26.087275 C73.7599111,27.140075 74.1995111,28.524225 74.1995111,30.2409 L74.1995111,30.2409 Z M71.6735556,30.33255 C71.6735556,29.2351 71.4293333,28.33035 70.938563,27.6183 C70.402437,26.8757 69.682563,26.5044 68.7801037,26.5044 C68.1683852,26.5044 67.6124889,26.7112 67.1159037,27.118925 C66.6181556,27.530175 66.2925259,28.06715 66.1401778,28.7322 C66.0634222,29.0424 66.0250444,29.2962 66.0250444,29.49595 L66.0250444,31.37595 C66.0250444,32.1961 66.2739185,32.888175 66.7716667,33.45335 C67.2694148,34.018525 67.9160222,34.300525 68.7114889,34.300525 C69.6453481,34.300525 70.3722,33.936275 70.8920444,33.210125 C71.4130519,32.4828 71.6735556,31.524 71.6735556,30.33255 L71.6735556,30.33255 Z" id="Shape" fill="#1D1D1D"></path>
                        <path d="M87.0351333,30.2409 C87.0351333,32.1585 86.5222667,33.67425 85.4953704,34.786975 C84.5777926,35.7775 83.4369259,36.272175 82.0750963,36.272175 C80.6051111,36.272175 79.5491407,35.738725 78.9071852,34.671825 L78.8606667,34.671825 L78.8606667,40.61145 L76.3812296,40.61145 L76.3812296,28.453725 C76.3812296,27.248175 76.3498296,26.0109 76.2893556,24.7419 L78.4699111,24.7419 L78.6083037,26.529075 L78.6548222,26.529075 C79.4805259,25.182525 80.735363,24.510425 82.4204963,24.510425 C83.7358074,24.510425 84.8348074,25.03565 85.7163333,26.087275 C86.5943704,27.140075 87.0351333,28.524225 87.0351333,30.2409 L87.0351333,30.2409 Z M84.5091778,30.33255 C84.5091778,29.2351 84.2637926,28.33035 83.7730222,27.6183 C83.2368963,26.8757 82.5193481,26.5044 81.6157259,26.5044 C81.0028444,26.5044 80.4481111,26.7112 79.950363,27.118925 C79.4526148,27.530175 79.1281481,28.06715 78.9758,28.7322 C78.9002074,29.0424 78.8606667,29.2962 78.8606667,29.49595 L78.8606667,31.37595 C78.8606667,32.1961 79.1095407,32.888175 79.604963,33.45335 C80.1027111,34.01735 80.7493185,34.300525 81.5471111,34.300525 C82.4809704,34.300525 83.2078222,33.936275 83.7276667,33.210125 C84.2486741,32.4828 84.5091778,31.524 84.5091778,30.33255 L84.5091778,30.33255 Z" id="Shape" fill="#1D1D1D"></path>
                        <path d="M101.386096,31.6321 C101.386096,32.9622 100.929052,34.044375 100.011474,34.8798 C99.0031852,35.792775 97.5994889,36.248675 95.7957333,36.248675 C94.1303704,36.248675 92.7952889,35.924375 91.7846741,35.2746 L92.3591778,33.186625 C93.4477111,33.851675 94.6420741,34.185375 95.9434296,34.185375 C96.8772889,34.185375 97.6041407,33.971525 98.1263111,33.546175 C98.6461556,33.120825 98.9054963,32.549775 98.9054963,31.837725 C98.9054963,31.203225 98.6915111,30.6686 98.2623778,30.235025 C97.8355704,29.80145 97.1226741,29.398425 96.1271778,29.02595 C93.4174741,28.004875 92.0637852,26.5091 92.0637852,24.54215 C92.0637852,23.2567 92.5382741,22.202725 93.4884148,21.382575 C94.4350667,20.56125 95.6980444,20.151175 97.2773481,20.151175 C98.6856963,20.151175 99.855637,20.3991 100.789496,20.893775 L100.169637,22.935925 C99.2974148,22.456525 98.3112222,22.216825 97.2075704,22.216825 C96.3353481,22.216825 95.6538519,22.4342 95.1654074,22.8666 C94.7525556,23.253175 94.5455481,23.72435 94.5455481,24.282475 C94.5455481,24.900525 94.7816296,25.41165 95.2561185,25.8135 C95.6689704,26.1848 96.4190815,26.58665 97.5076148,27.020225 C98.8392074,27.5619 99.8172593,28.195225 100.446422,28.921375 C101.073259,29.645175 101.386096,30.5511 101.386096,31.6321 L101.386096,31.6321 Z" id="Shape" fill="#1D1D1D"></path>
                        <path d="M109.583822,26.6219 L106.850859,26.6219 L106.850859,32.096225 C106.850859,33.4886 107.332326,34.1842 108.297585,34.1842 C108.740674,34.1842 109.10817,34.145425 109.398911,34.067875 L109.467526,35.9702 C108.979081,36.154675 108.335963,36.2475 107.539333,36.2475 C106.560119,36.2475 105.794889,35.945525 105.242481,35.34275 C104.6924,34.7388 104.415615,33.72595 104.415615,32.303025 L104.415615,26.61955 L102.787467,26.61955 L102.787467,24.73955 L104.415615,24.73955 L104.415615,22.675075 L106.850859,21.932475 L106.850859,24.73955 L109.583822,24.73955 L109.583822,26.6219 L109.583822,26.6219 Z" id="Shape" fill="#1D1D1D"></path>
                        <path d="M121.914719,30.286725 C121.914719,32.01985 121.423948,33.442775 120.444733,34.5555 C119.417837,35.701125 118.054844,36.272175 116.355756,36.272175 C114.718304,36.272175 113.414622,35.72345 112.442385,34.626 C111.470148,33.52855 110.98403,32.143225 110.98403,30.47355 C110.98403,28.726325 111.484104,27.295175 112.487741,26.18245 C113.489052,25.06855 114.840415,24.5116 116.539504,24.5116 C118.176956,24.5116 119.494593,25.060325 120.488926,26.15895 C121.44023,27.224675 121.914719,28.6006 121.914719,30.286725 L121.914719,30.286725 Z M119.342244,30.3678 C119.342244,29.327925 119.122444,28.4361 118.67703,27.692325 C118.157185,26.792275 117.414052,26.343425 116.451119,26.343425 C115.454459,26.343425 114.69737,26.79345 114.177526,27.692325 C113.732111,28.437275 113.512311,29.3432 113.512311,30.4148 C113.512311,31.454675 113.732111,32.3465 114.177526,33.0891 C114.713652,33.98915 115.4626,34.438 116.429022,34.438 C117.375674,34.438 118.118807,33.97975 118.654933,33.0656 C119.111978,32.307725 119.342244,31.4065 119.342244,30.3678 L119.342244,30.3678 Z" id="Shape" fill="#1D1D1D"></path>
                        <path d="M129.974052,26.945025 C129.728667,26.8992 129.467,26.8757 129.192541,26.8757 C128.320319,26.8757 127.6458,27.208225 127.171311,27.87445 C126.758459,28.46195 126.551452,29.20455 126.551452,30.101075 L126.551452,36.0172 L124.073178,36.0172 L124.096437,28.29275 C124.096437,26.9932 124.065037,25.809975 124.0034,24.743075 L126.163022,24.743075 L126.253733,26.900375 L126.322348,26.900375 C126.584015,26.15895 126.996867,25.56205 127.562067,25.114375 C128.114474,24.71135 128.711074,24.510425 129.354193,24.510425 C129.583296,24.510425 129.790304,24.526875 129.974052,24.55625 L129.974052,26.945025 L129.974052,26.945025 Z" id="Shape" fill="#1D1D1D"></path>
                        <path d="M141.062904,29.8461 C141.062904,30.29495 141.03383,30.6733 140.972193,30.982325 L133.533881,30.982325 C133.562956,32.096225 133.922311,32.9481 134.613111,33.5356 C135.239948,34.060825 136.050533,34.324025 137.04603,34.324025 C138.147356,34.324025 139.152156,34.1466 140.055778,33.790575 L140.444207,35.529575 C139.388237,35.994875 138.141541,36.22635 136.702956,36.22635 C134.972467,36.22635 133.614126,35.7117 132.625607,34.683575 C131.639415,33.65545 131.145156,32.274825 131.145156,30.542875 C131.145156,28.84265 131.604526,27.426775 132.52443,26.2976 C133.487363,25.09205 134.788719,24.489275 136.42617,24.489275 C138.034548,24.489275 139.25217,25.09205 140.079037,26.2976 C140.733785,27.255225 141.062904,28.439625 141.062904,29.8461 L141.062904,29.8461 Z M138.6986,29.196325 C138.714881,28.453725 138.55323,27.812175 138.217133,27.2705 C137.788,26.573725 137.1286,26.225925 136.241259,26.225925 C135.430674,26.225925 134.771274,26.5655 134.267711,27.247 C133.854859,27.788675 133.609474,28.43845 133.533881,29.19515 L138.6986,29.19515 L138.6986,29.196325 Z" id="Shape" fill="#1D1D1D"></path>
                        <path d="M56.0433333,10.760575 C56.0433333,12.14355 55.6328074,13.1846 54.8129185,13.883725 C54.0535037,14.5288 52.9742741,14.851925 51.5763926,14.851925 C50.8832667,14.851925 50.2901556,14.821375 49.7935704,14.760275 L49.7935704,7.20385 C50.4413407,7.0981 51.1391185,7.04405 51.8927185,7.04405 C53.2243111,7.04405 54.2279481,7.336625 54.9047926,7.921775 C55.6630444,8.5833 56.0433333,9.529175 56.0433333,10.760575 L56.0433333,10.760575 Z M54.7582593,10.79465 C54.7582593,9.898125 54.5233407,9.21075 54.0535037,8.73135 C53.5836667,8.253125 52.8975185,8.013425 51.9938963,8.013425 C51.6101185,8.013425 51.2833259,8.039275 51.0123556,8.093325 L51.0123556,13.8379 C51.1623778,13.8614 51.436837,13.871975 51.8357333,13.871975 C52.7684296,13.871975 53.4883037,13.60995 53.9953556,13.0859 C54.5024074,12.56185 54.7582593,11.7981 54.7582593,10.79465 L54.7582593,10.79465 Z" id="Shape" fill="#1D1D1D"></path>
                        <path d="M62.8571333,11.968475 C62.8571333,12.82035 62.6164,13.5183 62.1349333,14.06585 C61.6302074,14.628675 60.9615037,14.9095 60.1264963,14.9095 C59.3217259,14.9095 58.6809333,14.640425 58.2029556,14.099925 C57.7261407,13.5606 57.4877333,12.880275 57.4877333,12.060125 C57.4877333,11.202375 57.7331185,10.49855 58.2262148,9.952175 C58.7193111,9.4058 59.3822,9.132025 60.2172074,9.132025 C61.0219778,9.132025 61.6685852,9.4011 62.1581926,9.940425 C62.6233778,10.464475 62.8571333,11.141275 62.8571333,11.968475 L62.8571333,11.968475 Z M61.5929926,12.008425 C61.5929926,11.4973 61.4836741,11.059025 61.2662,10.6936 C61.0103481,10.2518 60.6463407,10.0309 60.1730148,10.0309 C59.6834074,10.0309 59.3112593,10.2518 59.0554074,10.6936 C58.8367704,11.059025 58.7286148,11.50435 58.7286148,12.03075 C58.7286148,12.541875 58.8379333,12.98015 59.0554074,13.345575 C59.3194,13.787375 59.6868963,14.008275 60.1613852,14.008275 C60.6265704,14.008275 60.9917407,13.78385 61.2545704,13.333825 C61.4801852,12.96135 61.5929926,12.51955 61.5929926,12.008425 L61.5929926,12.008425 Z" id="Shape" fill="#1D1D1D"></path>
                        <path d="M71.9933704,9.244825 L70.278,14.783775 L69.1615556,14.783775 L68.4509852,12.37855 C68.2707259,11.778125 68.1241926,11.181225 68.0102222,10.589025 L67.9881259,10.589025 C67.8822963,11.197675 67.735763,11.7934 67.547363,12.37855 L66.7926,14.783775 L65.663363,14.783775 L64.0503333,9.244825 L65.3028444,9.244825 L65.9227037,11.878 C66.0727259,12.50075 66.196,13.094125 66.2948519,13.655775 L66.3169481,13.655775 C66.4076593,13.192825 66.5576815,12.602975 66.7693407,11.88975 L67.547363,9.246 L68.5405333,9.246 L69.2859926,11.83335 C69.4662519,12.464325 69.6127852,13.0718 69.7255926,13.65695 L69.7593185,13.65695 C69.8418889,13.087075 69.9663259,12.4796 70.1314667,11.83335 L70.7966815,9.246 L71.9933704,9.246 L71.9933704,9.244825 Z" id="Shape" fill="#1D1D1D"></path>
                        <path d="M78.3117481,14.783775 L77.092963,14.783775 L77.092963,11.611275 C77.092963,10.633675 76.7254667,10.144875 75.9881481,10.144875 C75.6264667,10.144875 75.334563,10.278825 75.1077852,10.5479 C74.8833333,10.816975 74.769363,11.134225 74.769363,11.4973 L74.769363,14.7826 L73.5505778,14.7826 L73.5505778,10.82755 C73.5505778,10.3411 73.5354593,9.813525 73.5063852,9.242475 L74.5774741,9.242475 L74.6344593,10.10845 L74.6681852,10.10845 C74.8100667,9.839375 75.0217259,9.6173 75.2996741,9.439875 C75.6299556,9.233075 75.9997778,9.1285 76.4044889,9.1285 C76.9161926,9.1285 77.341837,9.29535 77.6802593,9.630225 C78.1012519,10.0403 78.3117481,10.652475 78.3117481,11.465575 L78.3117481,14.783775 L78.3117481,14.783775 Z" id="Shape" fill="#1D1D1D"></path>
                        <polygon id="Shape" fill="#1D1D1D" points="81.6727111 14.783775 80.4550889 14.783775 80.4550889 6.7033 81.6727111 6.7033"></polygon>
                        <path d="M88.8481926,11.968475 C88.8481926,12.82035 88.6074593,13.5183 88.1259926,14.06585 C87.6212667,14.628675 86.9514,14.9095 86.1175556,14.9095 C85.3116222,14.9095 84.6708296,14.640425 84.1940148,14.099925 C83.7172,13.5606 83.4787926,12.880275 83.4787926,12.060125 C83.4787926,11.202375 83.7241778,10.49855 84.2172741,9.952175 C84.7103704,9.4058 85.3732593,9.132025 86.2071037,9.132025 C87.013037,9.132025 87.6584815,9.4011 88.1492519,9.940425 C88.614437,10.464475 88.8481926,11.141275 88.8481926,11.968475 L88.8481926,11.968475 Z M87.5828889,12.008425 C87.5828889,11.4973 87.4735704,11.059025 87.2560963,10.6936 C87.0014074,10.2518 86.636237,10.0309 86.1640741,10.0309 C85.6733037,10.0309 85.3011556,10.2518 85.0464667,10.6936 C84.8278296,11.059025 84.7196741,11.50435 84.7196741,12.03075 C84.7196741,12.541875 84.8289926,12.98015 85.0464667,13.345575 C85.3104593,13.787375 85.6779556,14.008275 86.1524444,14.008275 C86.6176296,14.008275 86.981637,13.78385 87.2444667,13.333825 C87.4712444,12.96135 87.5828889,12.51955 87.5828889,12.008425 L87.5828889,12.008425 Z" id="Shape" fill="#1D1D1D"></path>
                        <path d="M94.7467407,14.783775 L93.6523926,14.783775 L93.5616815,14.14575 L93.5279556,14.14575 C93.1534815,14.654525 92.6196815,14.9095 91.9265556,14.9095 C91.409037,14.9095 90.9903704,14.741475 90.6752074,14.407775 C90.3891185,14.104625 90.2460741,13.72745 90.2460741,13.279775 C90.2460741,12.602975 90.5251852,12.08715 91.0868963,11.72995 C91.6474444,11.37275 92.4359333,11.197675 93.4512,11.2059 L93.4512,11.1025 C93.4512,10.372825 93.0720741,10.008575 92.3126593,10.008575 C91.7718815,10.008575 91.2950667,10.14605 90.8833778,10.41865 L90.6356667,9.61025 C91.1450444,9.291825 91.7742074,9.132025 92.5161778,9.132025 C93.9489481,9.132025 94.6676593,9.895775 94.6676593,11.423275 L94.6676593,13.463075 C94.6676593,14.0165 94.6944074,14.457125 94.7467407,14.783775 L94.7467407,14.783775 Z M93.481437,12.880275 L93.481437,12.02605 C92.1370519,12.00255 91.4648593,12.375025 91.4648593,13.1423 C91.4648593,13.43135 91.5416148,13.64755 91.6986148,13.792075 C91.8556148,13.9366 92.0556444,14.008275 92.2940519,14.008275 C92.5615333,14.008275 92.8115704,13.9225 93.0395111,13.752125 C93.2686148,13.580575 93.4093333,13.3632 93.4616667,13.096475 C93.4744593,13.03655 93.481437,12.9637 93.481437,12.880275 L93.481437,12.880275 Z" id="Shape" fill="#1D1D1D"></path>
                        <path d="M101.672185,14.783775 L100.59063,14.783775 L100.533644,13.8943 L100.499919,13.8943 C100.154519,14.5711 99.5660593,14.9095 98.7391926,14.9095 C98.0786296,14.9095 97.5285481,14.647475 97.092437,14.123425 C96.6563259,13.599375 96.4388519,12.91905 96.4388519,12.083625 C96.4388519,11.1871 96.6749333,10.46095 97.1494222,9.90635 C97.6087926,9.38935 98.1716667,9.13085 98.8415333,9.13085 C99.5776889,9.13085 100.092881,9.381125 100.385948,9.88285 L100.409207,9.88285 L100.409207,6.7033 L101.629156,6.7033 L101.629156,13.291525 C101.629156,13.83085 101.643111,14.327875 101.672185,14.783775 L101.672185,14.783775 Z M100.409207,12.447875 L100.409207,11.524325 C100.409207,11.364525 100.397578,11.235275 100.375481,11.136575 C100.306867,10.840475 100.15917,10.591375 99.9347185,10.39045 C99.7079407,10.189525 99.4346444,10.088475 99.1194815,10.088475 C98.664763,10.088475 98.3088963,10.2706 98.0472296,10.636025 C97.7878889,11.00145 97.6564741,11.467925 97.6564741,12.0378 C97.6564741,12.58535 97.7809111,13.0295 98.0309481,13.371425 C98.2949407,13.735675 98.6508074,13.9178 99.0962222,13.9178 C99.4962815,13.9178 99.8160963,13.766225 100.059156,13.4619 C100.294074,13.181075 100.409207,12.842675 100.409207,12.447875 L100.409207,12.447875 Z" id="Shape" fill="#1D1D1D"></path>
                        <path d="M112.095822,11.968475 C112.095822,12.82035 111.855089,13.5183 111.373622,14.06585 C110.868896,14.628675 110.201356,14.9095 109.365185,14.9095 C108.561578,14.9095 107.920785,14.640425 107.441644,14.099925 C106.96483,13.5606 106.726422,12.880275 106.726422,12.060125 C106.726422,11.202375 106.971807,10.49855 107.464904,9.952175 C107.958,9.4058 108.620889,9.132025 109.457059,9.132025 C110.260667,9.132025 110.908437,9.4011 111.396881,9.940425 C111.862067,10.464475 112.095822,11.141275 112.095822,11.968475 L112.095822,11.968475 Z M110.832844,12.008425 C110.832844,11.4973 110.723526,11.059025 110.506052,10.6936 C110.249037,10.2518 109.886193,10.0309 109.411704,10.0309 C108.923259,10.0309 108.551111,10.2518 108.294096,10.6936 C108.075459,11.059025 107.967304,11.50435 107.967304,12.03075 C107.967304,12.541875 108.076622,12.98015 108.294096,13.345575 C108.558089,13.787375 108.925585,14.008275 109.400074,14.008275 C109.865259,14.008275 110.231593,13.78385 110.494422,13.333825 C110.718874,12.96135 110.832844,12.51955 110.832844,12.008425 L110.832844,12.008425 Z" id="Shape" fill="#1D1D1D"></path>
                        <path d="M118.649119,14.783775 L117.431496,14.783775 L117.431496,11.611275 C117.431496,10.633675 117.064,10.144875 116.325519,10.144875 C115.963837,10.144875 115.671933,10.278825 115.446319,10.5479 C115.220704,10.816975 115.107896,11.134225 115.107896,11.4973 L115.107896,14.7826 L113.887948,14.7826 L113.887948,10.82755 C113.887948,10.3411 113.873993,9.813525 113.844919,9.242475 L114.914844,9.242475 L114.97183,10.10845 L115.005556,10.10845 C115.1486,9.839375 115.360259,9.6173 115.637044,9.439875 C115.968489,9.233075 116.337148,9.1285 116.743022,9.1285 C117.253563,9.1285 117.679207,9.29535 118.01763,9.630225 C118.439785,10.0403 118.649119,10.652475 118.649119,11.465575 L118.649119,14.783775 L118.649119,14.783775 Z" id="Shape" fill="#1D1D1D"></path>
                        <path d="M126.851496,10.1672 L125.509437,10.1672 L125.509437,12.85795 C125.509437,13.5418 125.747844,13.883725 126.220007,13.883725 C126.438644,13.883725 126.620067,13.864925 126.763111,13.82615 L126.794511,14.760275 C126.553778,14.851925 126.237452,14.89775 125.847859,14.89775 C125.366393,14.89775 124.991919,14.7497 124.720948,14.4536 C124.448815,14.1575 124.313911,13.6593 124.313911,12.960175 L124.313911,10.1672 L123.51263,10.1672 L123.51263,9.244825 L124.313911,9.244825 L124.313911,8.229625 L125.508274,7.865375 L125.508274,9.24365 L126.850333,9.24365 L126.850333,10.1672 L126.851496,10.1672 Z" id="Shape" fill="#1D1D1D"></path>
                        <path d="M133.303615,14.783775 L132.083667,14.783775 L132.083667,11.634775 C132.083667,10.6419 131.71617,10.144875 130.980015,10.144875 C130.414815,10.144875 130.028711,10.43275 129.817052,11.0085 C129.781,11.129525 129.760067,11.277575 129.760067,11.451475 L129.760067,14.7826 L128.542444,14.7826 L128.542444,6.7033 L129.760067,6.7033 L129.760067,10.041475 L129.783326,10.041475 C130.167104,9.434 130.717185,9.13085 131.430081,9.13085 C131.934807,9.13085 132.352311,9.2977 132.683756,9.632575 C133.096607,10.0497 133.303615,10.6701 133.303615,11.49025 L133.303615,14.783775 L133.303615,14.783775 Z" id="Shape" fill="#1D1D1D"></path>
                        <path d="M139.959252,11.752275 C139.959252,11.973175 139.94297,12.158825 139.913896,12.3104 L136.258704,12.3104 C136.274985,12.85795 136.44943,13.275075 136.787852,13.564125 C137.0972,13.822625 137.496096,13.951875 137.984541,13.951875 C138.525319,13.951875 139.018415,13.864925 139.462667,13.68985 L139.653393,14.54525 C139.133548,14.7732 138.52183,14.887175 137.813585,14.887175 C136.964622,14.887175 136.295919,14.63455 135.812126,14.1293 C135.326007,13.62405 135.085274,12.946075 135.085274,12.095375 C135.085274,11.25995 135.309726,10.56435 135.762119,10.00975 C136.234281,9.41755 136.872748,9.12145 137.678681,9.12145 C138.46717,9.12145 139.066096,9.41755 139.470807,10.00975 C139.7976,10.47975 139.959252,11.061375 139.959252,11.752275 L139.959252,11.752275 Z M138.796289,11.43385 C138.805593,11.068425 138.725348,10.753525 138.560207,10.487975 C138.348548,10.14605 138.026407,9.9745 137.590296,9.9745 C137.192563,9.9745 136.868096,10.14135 136.620385,10.476225 C136.41803,10.74295 136.298244,11.061375 136.258704,11.43385 L138.796289,11.43385 L138.796289,11.43385 Z" id="Shape" fill="#1D1D1D"></path>
                    </g>
                </g>
            </g>
        </g>
    </g>
</svg>