<?xml version="1.0" encoding="UTF-8"?>
<svg width="62px" height="62px" viewBox="0 0 62 62" version="1.1" xmlns="http://www.w3.org/2000/svg" xmlns:xlink="http://www.w3.org/1999/xlink">
    <title>arrow_right@3x</title>
    <g id="Design" stroke="none" stroke-width="1" fill="none" fill-rule="evenodd">
        <g id="1.0_home_desktop---Version-1.2" transform="translate(-1088.000000, -3396.000000)">
            <g id="arrow_right" transform="translate(1088.000000, 3396.000000)">
                <circle id="Oval" stroke="#43E0FF" fill="#FFFFFF" cx="31" cy="31" r="30.5"></circle>
                <path d="M38.4303286,42.7322523 L27.264284,31.6323458 C26.9119053,31.2820987 26.9119053,30.7181035 27.264284,30.3678564 L38.4303286,19.2679499 C38.7865291,18.9132029 39.367457,18.9109529 39.7274794,19.2597 C40.0875018,19.6091971 40.0913237,20.1784423 39.7358875,20.5324393 L29.2065703,31.0001011 L39.7358875,41.4677629 C40.0913237,41.8217599 40.0875018,42.3910051 39.7274794,42.7405022 C39.5486148,42.9137507 39.3162436,43 39.0831081,43 C38.8461507,43 38.6099577,42.9107508 38.4303286,42.7322523 Z" id="Icon" fill="#262454" transform="translate(33.500000, 31.000000) scale(-1, 1) translate(-33.500000, -31.000000) "></path>
            </g>
        </g>
    </g>
</svg>