<?xml version="1.0" encoding="UTF-8"?>
<svg width="155px" height="45px" viewBox="0 0 155 45" version="1.1" xmlns="http://www.w3.org/2000/svg" xmlns:xlink="http://www.w3.org/1999/xlink">
    <title>google_play@3x</title>
    <defs>
        <linearGradient x1="60.905032%" y1="4.9481245%" x2="26.7771757%" y2="71.9074222%" id="linearGradient-1">
            <stop stop-color="#00A0FF" offset="0%"></stop>
            <stop stop-color="#00A1FF" offset="1%"></stop>
            <stop stop-color="#00BEFF" offset="26%"></stop>
            <stop stop-color="#00D2FF" offset="51%"></stop>
            <stop stop-color="#00DFFF" offset="76%"></stop>
            <stop stop-color="#00E3FF" offset="100%"></stop>
        </linearGradient>
        <linearGradient x1="107.684729%" y1="50%" x2="-130.640394%" y2="50%" id="linearGradient-2">
            <stop stop-color="#FFE000" offset="0%"></stop>
            <stop stop-color="#FFBD00" offset="41%"></stop>
            <stop stop-color="#FFA500" offset="78%"></stop>
            <stop stop-color="#FF9C00" offset="100%"></stop>
        </linearGradient>
        <linearGradient x1="86.219293%" y1="30.6856349%" x2="-50.1497903%" y2="137.004014%" id="linearGradient-3">
            <stop stop-color="#FF3A44" offset="0%"></stop>
            <stop stop-color="#C31162" offset="100%"></stop>
        </linearGradient>
        <linearGradient x1="-18.7537448%" y1="-12.5624698%" x2="42.1210306%" y2="34.9186171%" id="linearGradient-4">
            <stop stop-color="#32A071" offset="0%"></stop>
            <stop stop-color="#2DA771" offset="7%"></stop>
            <stop stop-color="#15CF74" offset="48%"></stop>
            <stop stop-color="#06E775" offset="80%"></stop>
            <stop stop-color="#00F076" offset="100%"></stop>
        </linearGradient>
    </defs>
    <g id="Design" stroke="none" stroke-width="1" fill="none" fill-rule="evenodd">
        <g id="1.0_home_desktop---Version-1.2" transform="translate(-407.000000, -4273.000000)">
            <g id="Group-6" transform="translate(145.000000, 3949.000000)">
                <g id="Group-10" transform="translate(80.000000, 98.000000)">
                    <g id="google_play" transform="translate(182.000000, 226.000000)">
                        <path d="M150.415452,44.94015 L4.49965185,44.94015 C2.03533333,44.94015 0.035037037,42.9262 0.035037037,40.4399 L0.035037037,4.551875 C0.035037037,2.06675 2.03533333,0.04575 4.49965185,0.04575 L150.414289,0.04575 C152.880933,0.04575 154.873089,2.06675 154.873089,4.551875 L154.874252,40.4399 C154.874252,42.9262 152.880933,44.94015 150.415452,44.94015 Z" id="Shape" fill="#FFFFFF"></path>
                        <path d="M53.6514693,10.9551454 C53.690983,11.812738 53.3791783,12.6491171 52.7888149,13.2691139 C52.129114,13.9584488 51.2089884,14.3328751 50.2583619,14.2988299 C48.8002921,14.2873512 47.4911369,13.3977893 46.9362128,12.0414526 C46.3812886,10.6851158 46.6887387,9.12632631 47.7164068,8.08582437 C48.3841393,7.40010984 49.3043568,7.02315217 50.2583619,7.04453853 C50.7446202,7.04290884 51.2260714,7.14134146 51.6731151,7.3337846 C52.0893223,7.50265057 52.4598376,7.76829763 52.7543087,8.10896406 L52.1446996,8.72216572 C51.6792651,8.16528194 50.9805587,7.8610106 50.2583619,7.90070689 C49.5324087,7.89712472 48.8363385,8.19121136 48.3306582,8.7151534 C47.8249779,9.23909544 47.5533402,9.94766358 47.5783821,10.6774691 C47.5629716,11.7802946 48.208668,12.7841518 49.2150484,13.2219764 C50.2214288,13.659801 51.390846,13.4456068 52.1792057,12.6790519 C52.533135,12.29324 52.7372661,11.792225 52.7543087,11.2675311 L50.2583619,11.2675311 L50.2583619,10.4345024 L53.605461,10.4345024 C53.6361407,10.6063309 53.6515376,10.7805676 53.6514693,10.9551454 L53.6514693,10.9551454 Z" id="Shape" stroke="#1D1D1D" stroke-width="0.5" fill="#1D1D1D"></path>
                        <polygon id="Shape" stroke="#1D1D1D" stroke-width="0.5" fill="#1D1D1D" points="58.9194123 8.06268469 55.8138564 8.06268469 55.8138564 10.2609548 58.6433629 10.2609548 58.6433629 11.0939835 55.8138564 11.0939835 55.8138564 13.2922536 58.9194123 13.2922536 58.9194123 14.1484219 54.8936917 14.1484219 54.8936917 7.20651633 58.9194123 7.20651633"></polygon>
                        <polygon id="Shape" stroke="#1D1D1D" stroke-width="0.5" fill="#1D1D1D" points="62.6920877 14.1484219 61.8064291 14.1484219 61.8064291 8.06268469 59.8740832 8.06268469 59.8740832 7.20651633 64.6704418 7.20651633 64.6704418 8.06268469 62.6920877 8.06268469"></polygon>
                        <polygon id="Shape" stroke="#1D1D1D" stroke-width="0.5" fill="#1D1D1D" points="68.0520472 14.1484219 68.0520472 7.20651633 68.9377057 7.20651633 68.9377057 14.1484219"></polygon>
                        <polygon id="Shape" stroke="#1D1D1D" stroke-width="0.5" fill="#1D1D1D" points="72.8714099 14.1484219 71.9857514 14.1484219 71.9857514 8.06268469 70.0534055 8.06268469 70.0534055 7.20651633 74.7922538 7.20651633 74.7922538 8.06268469 72.8714099 8.06268469"></polygon>
                        <path d="M83.7753619,13.2459742 C82.3755496,14.6461888 80.1142682,14.6461888 78.7144559,13.2459742 C77.3575223,11.8011714 77.3575223,9.54219698 78.7144559,8.09739422 C79.383874,7.41910836 80.294742,7.03763477 81.2449089,7.03763477 C82.1950759,7.03763477 83.1059439,7.41910836 83.7753619,8.09739422 C85.1380862,9.53987574 85.1380862,11.8034927 83.7753619,13.2459742 L83.7753619,13.2459742 Z M79.3700733,12.6674821 C80.4067814,13.7059507 82.0830364,13.7059507 83.1197445,12.6674821 C84.1379049,11.5384634 84.1379049,9.81647484 83.1197445,8.68745619 C82.0830364,7.64898753 80.4067814,7.64898753 79.3700733,8.68745619 C78.351913,9.81647484 78.351913,11.5384634 79.3700733,12.6674821 L79.3700733,12.6674821 Z" id="Shape" stroke="#1D1D1D" stroke-width="0.5" fill="#1D1D1D"></path>
                        <polygon id="Shape" stroke="#1D1D1D" stroke-width="0.5" fill="#1D1D1D" points="86.0412675 14.1484219 86.0412675 7.20651633 87.1224611 7.20651633 90.4810623 12.6096329 90.4810623 12.6096329 90.4810623 11.2675311 90.4810623 7.20651633 91.3667209 7.20651633 91.3667209 14.1484219 90.4465561 14.1484219 86.9384281 8.49076887 86.9384281 8.49076887 86.9384281 9.83287062 86.9384281 14.1484219"></polygon>
                        <path d="M77.4837356,24.2720343 C74.7869916,24.2847998 72.6099381,26.4919182 72.6183886,29.2045713 C72.6268392,31.9172245 74.8176011,34.1105753 77.5143717,34.1063401 C80.2111423,34.102105 82.395085,31.9018839 82.3951148,29.1892174 C82.4140621,27.8753158 81.9019429,26.6099637 80.9760542,25.6829808 C80.0501655,24.755998 78.7898362,24.246807 77.4837356,24.2720343 L77.4837356,24.2720343 Z M77.4837356,32.1742369 C76.2682295,32.2597441 75.1242871,31.5891655 74.5990437,30.4832315 C74.0738003,29.3772976 74.2740122,28.0607908 75.1039203,27.163382 C75.9338284,26.2659732 77.2247528,25.9700619 78.3592584,26.4171792 C79.4937639,26.8642966 80.241261,27.9635654 80.2442298,29.1892174 C80.2816607,29.9559184 80.0096254,30.7053213 79.4898561,31.267366 C78.9700869,31.8294108 78.2466581,32.1564382 77.4837356,32.1742369 L77.4837356,32.1742369 Z M66.7753186,24.2720343 C64.07705,24.2784206 61.8942215,26.4827384 61.8984516,29.1969125 C61.9026817,31.9110867 64.0923704,34.1085092 66.7906457,34.1063855 C69.488921,34.1042617 71.6751883,31.903395 71.6751958,29.1892174 C71.6941431,27.8753158 71.1820238,26.6099637 70.2561352,25.6829808 C69.3302465,24.755998 68.0699172,24.246807 66.7638166,24.2720343 L66.7753186,24.2720343 Z M66.7753186,32.1742369 C65.559178,32.2645661 64.4119003,31.5973313 63.8829554,30.4920935 C63.3540104,29.3868557 63.5510876,28.0686337 64.3798002,27.1687682 C65.2085128,26.2689027 66.5001406,25.9706001 67.6360796,26.4167275 C68.7720187,26.862855 69.5209998,27.962584 69.5243108,29.1892174 C69.5617417,29.9559184 69.2897064,30.7053213 68.7699371,31.267366 C68.2501678,31.8294108 67.5267391,32.1564382 66.7638166,32.1742369 L66.7753186,32.1742369 Z M54.0195352,25.7876837 L54.0195352,27.8702554 L58.9884247,27.8702554 C58.9105137,28.851151 58.5051595,29.7767277 57.8382188,30.4966097 C56.8329651,31.5265856 55.4418145,32.0812824 54.0080331,32.0238289 C50.9588755,32.0238289 48.4870448,29.5374313 48.4870448,26.4703044 C48.4870448,23.4031775 50.9588755,20.9167799 54.0080331,20.9167799 C55.408749,20.8938009 56.7613522,21.4305412 57.7692064,22.4092896 L59.2299679,20.9399196 C57.8553794,19.5398045 55.9757115,18.7592983 54.0195352,18.776359 C51.2348416,18.6673468 48.6140201,20.0995693 47.1894446,22.5088563 C45.7648692,24.9181433 45.7648692,27.9183369 47.1894446,30.3276239 C48.6140201,32.736911 51.2348416,34.1691334 54.0195352,34.0601212 C56.0114215,34.1506603 57.9448897,33.370184 59.3219844,31.9197003 C60.5270272,30.5879207 61.1704148,28.8372179 61.1163056,27.0372267 C61.1200171,26.598716 61.0814971,26.1608745 61.001285,25.7298345 L54.0195352,25.7876837 Z M106.135365,27.4074617 C105.521246,25.5900824 103.855573,24.3426717 101.948615,24.2720343 C100.676906,24.2695333 99.4608867,24.7966197 98.5893001,25.7281378 C97.7177136,26.6596559 97.2683071,27.9125121 97.3477916,29.1892174 C97.3195436,30.4957953 97.8207153,31.7577553 98.7361501,32.6851311 C99.6515849,33.6125069 100.90257,34.1255588 102.20166,34.1064006 C103.83594,34.1152619 105.365467,33.298184 106.273389,31.9312702 L104.605591,30.7742859 C104.099208,31.6234454 103.186071,32.1420345 102.20166,32.1395273 C101.182108,32.1786162 100.242447,31.5867201 99.8322363,30.6470176 L106.376908,27.9281046 L106.135365,27.4074617 Z M99.4641704,29.0503793 C99.4170717,28.3274542 99.6612303,27.6158866 100.141603,27.0760911 C100.621976,26.5362956 101.298128,26.2137103 102.017628,26.1810583 C102.776039,26.1307892 103.491118,26.5405132 103.834953,27.2223442 L99.4641704,29.0503793 Z M94.1502192,33.8171545 L96.3011042,33.8171545 L96.3011042,19.3548512 L94.1502192,19.3548512 L94.1502192,33.8171545 Z M90.6305891,25.3711694 L90.5500747,25.3711694 C89.8944137,24.6337964 88.9571053,24.2128892 87.9736135,24.2141851 C85.362815,24.3415363 83.3110665,26.5078828 83.3110665,29.1371532 C83.3110665,31.7664235 85.362815,33.93277 87.9736135,34.0601212 C88.9602934,34.0768093 89.9036773,33.6531738 90.5500747,32.9031369 L90.619087,32.9031369 L90.619087,33.6088974 C90.619087,35.4947817 89.6184079,36.501358 88.0081196,36.501358 C86.9111717,36.4755312 85.9385865,35.7852235 85.546679,34.7543118 L83.6718434,35.5410611 C84.3938065,37.3075574 86.1093952,38.4564975 88.0081196,38.4450916 C90.5270706,38.4450916 92.6089432,36.9525819 92.6089432,33.3196513 L92.6089432,24.5612804 L90.6305891,24.5612804 L90.6305891,25.3711694 Z M88.1691485,32.1742369 C86.6311939,32.0378976 85.4516448,30.7422317 85.4516448,29.1892174 C85.4516448,27.6362032 86.6311939,26.3405373 88.1691485,26.204198 C88.912319,26.2425608 89.608615,26.581109 90.1001714,27.1430867 C90.5917279,27.7050644 90.8369049,28.4428664 90.7801159,29.1892174 C90.8435322,29.9390004 90.5991396,30.682226 90.1037606,31.2460898 C89.6083817,31.8099537 88.9051772,32.1453282 88.1576464,32.1742369 L88.1691485,32.1742369 Z M116.211168,19.3548512 L111.069748,19.3548512 L111.069748,33.8171545 L113.220633,33.8171545 L113.220633,28.3330491 L116.22267,28.3330491 C117.893556,28.4537964 119.491526,27.6255636 120.363561,26.186812 C121.235597,24.7480604 121.235597,22.9398398 120.363561,21.5010882 C119.491526,20.0623367 117.893556,19.2341039 116.22267,19.3548512 L116.211168,19.3548512 Z M116.211168,26.2967568 L113.209131,26.2967568 L113.209131,21.3680038 L116.257177,21.3680038 C117.619769,21.3680038 118.724368,22.4791127 118.724368,23.849735 C118.724368,25.2203574 117.619769,26.3314663 116.257177,26.3314663 L116.211168,26.2967568 Z M129.473042,24.2141851 C127.872776,24.1179691 126.368277,24.9859954 125.642857,26.424025 L127.552199,27.2223442 C127.936834,26.509258 128.703698,26.0918034 129.507549,26.1579187 C130.059105,26.0931213 130.613418,26.2539137 131.045982,26.6041793 C131.478545,26.9544448 131.753094,27.464819 131.80796,28.0206633 L131.80796,28.1710713 C131.117138,27.8031492 130.34673,27.6123927 129.565059,27.6157188 C127.50619,27.6157188 125.424318,28.7727031 125.424318,30.8668446 C125.465366,31.7689554 125.867423,32.6160076 126.539018,33.2152882 C127.210613,33.8145689 128.094634,34.1151157 128.989956,34.0485514 C130.093267,34.128248 131.151847,33.5958387 131.75045,32.6601703 L131.819463,32.6601703 L131.819463,33.8171545 L133.889833,33.8171545 L133.889833,28.2520602 C133.889833,25.7182646 131.980491,24.2488946 129.530553,24.2488946 L129.473042,24.2141851 Z M129.208495,32.1395273 C128.50687,32.1395273 127.529194,31.7808622 127.529194,30.913124 C127.529194,29.7561397 128.748413,29.3743349 129.829606,29.3743349 C130.512877,29.3573757 131.18815,29.5251911 131.784956,29.8602683 C131.63623,31.1554139 130.56174,32.1424667 129.266005,32.1742369 L129.208495,32.1395273 Z M141.435184,24.5612804 L138.973743,30.8321351 L138.904731,30.8321351 L136.351274,24.5612804 L134.050862,24.5612804 L137.881048,33.3312211 L135.695656,38.2021249 L137.938558,38.2021249 L143.827612,24.5612804 L141.435184,24.5612804 Z M122.100223,33.8171545 L124.251108,33.8171545 L124.251108,19.3548512 L122.100223,19.3548512 L122.100223,33.8171545 Z" id="Shape" fill="#1D1D1D"></path>
                        <path d="M11.116855,7.83128783 C10.7419626,8.28379403 10.5527407,8.86308053 10.5877602,9.45106581 L10.5877602,35.0435578 C10.5527407,35.6315431 10.7419626,36.2108296 11.116855,36.6633358 L11.1973694,36.7443247 L25.4484205,22.4208595 L25.4484205,22.085334 L11.1973694,7.75029893 L11.116855,7.83128783 Z" id="Shape" fill="url(#linearGradient-1)"></path>
                        <path d="M30.1642647,27.1992045 L25.4484205,22.4208595 L25.4484205,22.085334 L30.1642647,17.2954192 L30.2677833,17.3532684 L35.9152942,20.5812545 C37.5255825,21.4952721 37.5255825,22.9993516 35.9152942,23.924939 L30.2907874,27.1413553 L30.1642647,27.1992045 Z" id="Shape" fill="url(#linearGradient-2)"></path>
                        <path d="M30.3022894,27.1297854 L25.4484205,22.2473118 L11.116855,36.6633358 C11.7940016,37.2621011 12.7989494,37.2912608 13.5092832,36.7327549 L30.3137915,27.1297854" id="Shape" fill="url(#linearGradient-3)"></path>
                        <path d="M30.3022894,17.3648382 L13.4977812,7.76186878 C12.7874473,7.20336284 11.7824995,7.23252256 11.1053529,7.83128783 L25.4484205,22.2473118 L30.3022894,17.3648382 Z" id="Shape" fill="url(#linearGradient-4)"></path>
                        <path d="M30.1642647,27.0256569 L13.4977812,36.5707771 C12.8157534,37.0837104 11.8793972,37.0837104 11.1973694,36.5707771 L11.1973694,36.5707771 L11.116855,36.651766 L11.116855,36.651766 L11.1973694,36.7327549 L11.1973694,36.7327549 C11.8781139,37.2495557 12.8170367,37.2495557 13.4977812,36.7327549 L30.3022894,27.1297854 L30.1642647,27.0256569 Z" id="Shape" fill="#000000" opacity="0.2"></path>
                        <path d="M11.116855,36.501358 C10.7419626,36.0488518 10.5527407,35.4695653 10.5877602,34.88158 L10.5877602,35.0551277 C10.5527407,35.643113 10.7419626,36.2223995 11.116855,36.6749057 L11.1973694,36.5939168 L11.116855,36.501358 Z" id="Shape" fill="#000000" opacity="0.12"></path>
                        <path d="M35.9152942,23.7513914 L30.1642647,27.0256569 L30.2677833,27.1297854 L35.9152942,23.9133692 C36.5675416,23.6051638 37.0062282,22.9697324 37.0655002,22.2473118 L37.0655002,22.2473118 C36.9344106,22.9008204 36.5096125,23.4563124 35.9152942,23.7513914 L35.9152942,23.7513914 Z" id="Shape" fill="#000000" opacity="0.12"></path>
                        <path d="M13.4977812,7.92384658 L35.9152942,20.7432323 C36.5096125,21.0383112 36.9344106,21.5938032 37.0655002,22.2473118 L37.0655002,22.2473118 C37.0062282,21.5248912 36.5675416,20.8894598 35.9152942,20.5812545 L13.4977812,7.76186878 C11.8874929,6.8478512 10.5762582,7.61146082 10.5762582,9.46263565 L10.5762582,9.63618329 C10.6107644,7.77343862 11.898995,7.009829 13.4977812,7.92384658 L13.4977812,7.92384658 Z" id="Shape" fill="#000000" opacity="0.25"></path>
                    </g>
                </g>
            </g>
        </g>
    </g>
</svg>